<?xml version="1.0" encoding="UTF-8" standalone="no" ?>
<!DOCTYPE svg PUBLIC "-//W3C//DTD SVG 1.1//EN" "http://www.w3.org/Graphics/SVG/1.1/DTD/svg11.dtd">
<svg xmlns="http://www.w3.org/2000/svg" xmlns:xlink="http://www.w3.org/1999/xlink" version="1.1" width="1000" height="1000" viewBox="0 0 1000 1000" xml:space="preserve">
<desc>Created with Fabric.js 5.2.4</desc>
<defs>
</defs>
<rect x="0" y="0" width="100%" height="100%" fill="transparent"></rect>
<g transform="matrix(1 0 0 1 500 500)" id="66d0fe64-171d-488e-aa79-d8fe6a569cb7"  >
<rect style="stroke: none; stroke-width: 1; stroke-dasharray: none; stroke-linecap: butt; stroke-dashoffset: 0; stroke-linejoin: miter; stroke-miterlimit: 4; fill: rgb(0,0,0); fill-rule: nonzero; opacity: 1; visibility: hidden;" vector-effect="non-scaling-stroke"  x="-500" y="-500" rx="0" ry="0" width="1000" height="1000" />
</g>
<g transform="matrix(Infinity NaN NaN Infinity 0 0)" id="e36b214c-1a81-4a0b-b71a-93befb82d2c9"  >
</g>
<g transform="matrix(10.22 0 0 10.22 372 389.09)"  >
<path style="stroke: none; stroke-width: 1; stroke-dasharray: none; stroke-linecap: butt; stroke-dashoffset: 0; stroke-linejoin: miter; stroke-miterlimit: 4; fill: rgb(255,255,255); fill-rule: evenodd; opacity: 1;" vector-effect="non-scaling-stroke"  transform=" translate(-37.49, -39.16)" d="M 37.854 26.105 C 42.272999999999996 26.532 47.282 26.193 51.727 27.611 C 61.668 30.783 64.515 40.486000000000004 58.678 49.227000000000004 C 52.836 57.975 39.604 61.906000000000006 29.970999999999997 57.756 C 24.237999999999996 55.286 21.406999999999996 50.721000000000004 21.584999999999997 44.263 C 21.615999999999996 43.147999999999996 21.589 42.033 21.589 40.403999999999996 C 20.205 41.483999999999995 19.275 42.513999999999996 18.115 43.023999999999994 C 17.078999999999997 43.48 15.483999999999998 43.85399999999999 14.694999999999999 43.36299999999999 C 13.860999999999999 42.84199999999999 13.184999999999999 41.19599999999999 13.316999999999998 40.15299999999999 C 13.814999999999998 36.20299999999999 15.889999999999999 33.038999999999994 19.22 30.84899999999999 C 21.496 29.35099999999999 23.651 30.53499999999999 23.904 33.28099999999999 C 23.977 34.08399999999999 23.915 34.898999999999994 23.915 35.86699999999999 C 27.096 33.26099999999999 30.127 30.77799999999999 33.797 27.77099999999999 C 31.984999999999996 28.11899999999999 30.873999999999995 28.59299999999999 29.836999999999996 28.46299999999999 C 28.697999999999997 28.321999999999992 27.389999999999997 27.85799999999999 26.632999999999996 27.07199999999999 C 26.278999999999996 26.70599999999999 26.750999999999994 24.95899999999999 27.360999999999997 24.344999999999988 C 30.83 20.849999999999987 35.056 18.828999999999986 40.05 18.910999999999987 C 42.379999999999995 18.948999999999987 43.153999999999996 20.785999999999987 41.608999999999995 22.60399999999999 C 40.347 24.094 38.744 25.293 37.854 26.105 z" stroke-linecap="round" />
</g>
<g transform="matrix(10.22 0 0 10.22 640.82 598.6)"  >
<path style="stroke: none; stroke-width: 1; stroke-dasharray: none; stroke-linecap: butt; stroke-dashoffset: 0; stroke-linejoin: miter; stroke-miterlimit: 4; fill: rgb(255,255,255); fill-rule: evenodd; opacity: 1;" vector-effect="non-scaling-stroke"  transform=" translate(-63.78, -59.65)" d="M 67.94 49.245 C 74.362 49.248999999999995 77.573 54.131 74.599 60.052 C 71.575 66.075 66.58 69.81700000000001 59.58800000000001 70.041 C 52.80500000000001 70.258 50.47500000000001 65.823 52.589000000000006 59.687 C 54.57 53.937 61.87 49.242 67.94 49.245 z" stroke-linecap="round" />
</g>
<g transform="matrix(10.22 0 0 10.22 733.1 358.81)"  >
<path style="stroke: none; stroke-width: 1; stroke-dasharray: none; stroke-linecap: butt; stroke-dashoffset: 0; stroke-linejoin: miter; stroke-miterlimit: 4; fill: rgb(255,255,255); fill-rule: evenodd; opacity: 1;" vector-effect="non-scaling-stroke"  transform=" translate(-72.8, -36.19)" d="M 74.326 45.595 C 68.53099999999999 45.555 63.36699999999999 40.245999999999995 63.38199999999999 34.344 C 63.39199999999999 29.987000000000002 66.457 26.767000000000003 70.56799999999998 26.794 C 76.30699999999999 26.833000000000002 82.24199999999999 32.803 82.21299999999998 38.511 C 82.191 42.906 79.158 45.627 74.326 45.595 z" stroke-linecap="round" />
</g>
<g transform="matrix(10.22 0 0 10.22 351.53 682.07)"  >
<path style="stroke: none; stroke-width: 1; stroke-dasharray: none; stroke-linecap: butt; stroke-dashoffset: 0; stroke-linejoin: miter; stroke-miterlimit: 4; fill: rgb(255,255,255); fill-rule: evenodd; opacity: 1;" vector-effect="non-scaling-stroke"  transform=" translate(-35.48, -67.81)" d="M 36.197 75.248 C 33.506 74.50200000000001 30.719 73.992 28.151000000000003 72.94500000000001 C 25.611000000000004 71.909 23.734 69.86300000000001 23.776000000000003 66.93 C 23.817000000000004 64.06700000000001 25.786 62.37700000000001 28.332000000000004 61.50500000000001 C 33.303000000000004 59.80200000000001 38.282000000000004 59.95100000000001 42.982000000000006 62.32800000000001 C 45.596000000000004 63.65100000000001 47.705000000000005 65.71700000000001 47.077000000000005 69.07900000000001 C 46.441 72.49300000000001 43.587 73.60900000000001 40.72800000000001 74.43 C 39.34700000000001 74.82700000000001 37.81500000000001 74.70100000000001 36.351000000000006 74.813 C 36.3 74.958 36.249 75.102 36.197 75.248 z" stroke-linecap="round" />
</g>
<g transform="matrix(10.22 0 0 10.22 875.88 599.08)"  >
<path style="stroke: none; stroke-width: 1; stroke-dasharray: none; stroke-linecap: butt; stroke-dashoffset: 0; stroke-linejoin: miter; stroke-miterlimit: 4; fill: rgb(255,255,255); fill-rule: evenodd; opacity: 1;" vector-effect="non-scaling-stroke"  transform=" translate(-86.76, -59.69)" d="M 88.205 52.5 C 93.977 52.465 96.524 56.593 94.068 61.247 C 91.895 65.367 86.452 67.87 82.615 66.514 C 78.90599999999999 65.203 77.52199999999999 61.94799999999999 79.271 58.41799999999999 C 81.184 54.559 84.474 52.786 88.205 52.5 z" stroke-linecap="round" />
</g>
<g transform="matrix(10.22 0 0 10.22 464.96 828.01)"  >
<path style="stroke: none; stroke-width: 1; stroke-dasharray: none; stroke-linecap: butt; stroke-dashoffset: 0; stroke-linejoin: miter; stroke-miterlimit: 4; fill: rgb(255,255,255); fill-rule: evenodd; opacity: 1;" vector-effect="non-scaling-stroke"  transform=" translate(-46.57, -82.08)" d="M 46.266 87.77 C 43.961 87.12299999999999 42.153999999999996 86.886 40.608 86.124 C 37.221 84.45299999999999 36.998999999999995 80.678 40.142999999999994 78.55499999999999 C 43.925999999999995 76.00099999999999 48.129999999999995 75.81599999999999 52.248999999999995 77.425 C 55.81399999999999 78.817 56.28699999999999 82.75399999999999 53.087999999999994 84.92099999999999 C 51.013 86.325 48.388 86.917 46.266 87.77 z" stroke-linecap="round" />
</g>
<g transform="matrix(10.22 0 0 10.22 571.29 215.44)"  >
<path style="stroke: none; stroke-width: 1; stroke-dasharray: none; stroke-linecap: butt; stroke-dashoffset: 0; stroke-linejoin: miter; stroke-miterlimit: 4; fill: rgb(255,255,255); fill-rule: evenodd; opacity: 1;" vector-effect="non-scaling-stroke"  transform=" translate(-56.97, -22.17)" d="M 57.453 27.11 C 54.763000000000005 26.258 51.74 25.686 49.091 24.361 C 46.105000000000004 22.867 46.304 20.298000000000002 49.182 18.616 C 52.902 16.442999999999998 61.838 16.912 65.23 19.459 C 67.706 21.316 67.63600000000001 23.856 64.795 25.119999999999997 C 62.648 26.075 60.217 26.391 57.453 27.11 z" stroke-linecap="round" />
</g>
<g transform="matrix(10.22 0 0 10.22 164.56 555.42)"  >
<path style="stroke: none; stroke-width: 1; stroke-dasharray: none; stroke-linecap: butt; stroke-dashoffset: 0; stroke-linejoin: miter; stroke-miterlimit: 4; fill: rgb(255,255,255); fill-rule: evenodd; opacity: 1;" vector-effect="non-scaling-stroke"  transform=" translate(-17.2, -55.42)" d="M 23.009 56.955 C 23.232 59.666 22.165 61.827999999999996 19.711 62.861999999999995 C 17.108999999999998 63.956999999999994 14.925999999999998 62.574 13.337999999999997 60.61899999999999 C 11.302999999999997 58.11299999999999 9.975999999999997 55.23199999999999 10.930999999999997 51.86999999999999 C 12.188999999999997 47.44199999999999 16.543 46.12399999999999 19.641 49.49999999999999 C 21.439 51.45799999999999 22.424999999999997 54.16199999999999 23.775999999999996 56.528999999999996 C 23.521 56.671 23.265 56.813 23.009 56.955 z" stroke-linecap="round" />
</g>
<g transform="matrix(10.22 0 0 10.22 776.55 193.92)"  >
<path style="stroke: none; stroke-width: 1; stroke-dasharray: none; stroke-linecap: butt; stroke-dashoffset: 0; stroke-linejoin: miter; stroke-miterlimit: 4; fill: rgb(255,255,255); fill-rule: evenodd; opacity: 1;" vector-effect="non-scaling-stroke"  transform=" translate(-77.05, -20.07)" d="M 75.446 15.578 C 77.744 16.71 79.79899999999999 17.345 81.328 18.615 C 82.24300000000001 19.374 82.973 21.348999999999997 82.616 22.366 C 82.251 23.407 80.422 24.611 79.293 24.554 C 77.29400000000001 24.453999999999997 75.099 23.811999999999998 73.453 22.703 C 72.306 21.931 71.105 19.743 71.44200000000001 18.655 C 71.828 17.411 73.889 16.688 75.446 15.578 z" stroke-linecap="round" />
</g>
<g transform="matrix(10.22 0 0 10.22 115.53 691.11)"  >
<path style="stroke: none; stroke-width: 1; stroke-dasharray: none; stroke-linecap: butt; stroke-dashoffset: 0; stroke-linejoin: miter; stroke-miterlimit: 4; fill: rgb(255,255,255); fill-rule: evenodd; opacity: 1;" vector-effect="non-scaling-stroke"  transform=" translate(-12.4, -68.69)" d="M 16.589 70.245 C 15.623999999999999 71.613 14.976999999999999 73.5 13.878999999999998 73.813 C 12.798999999999998 74.12 10.853999999999997 73.167 10.031999999999998 72.16 C 8.983999999999998 70.875 8.206999999999999 68.97999999999999 8.208999999999998 67.35 C 8.210999999999999 66.04599999999999 9.274999999999999 64.241 10.399999999999999 63.617999999999995 C 11.168 63.19199999999999 13.255999999999998 64.073 14.028999999999998 64.984 C 15.165 66.325 15.651 68.213 16.589 70.245 z" stroke-linecap="round" />
</g>
<g transform="matrix(10.22 0 0 10.22 466.02 138.24)"  >
<path style="stroke: none; stroke-width: 1; stroke-dasharray: none; stroke-linecap: butt; stroke-dashoffset: 0; stroke-linejoin: miter; stroke-miterlimit: 4; fill: rgb(255,255,255); fill-rule: evenodd; opacity: 1;" vector-effect="non-scaling-stroke"  transform=" translate(-46.93, -14.62)" d="M 45.207 17.008 C 44.103 16.303 43.007 15.601999999999999 41.909 14.902999999999999 C 43.007 14.084 44 12.86 45.226 12.549 C 46.882999999999996 12.129 48.766 12.152999999999999 50.464999999999996 12.461 C 52.214 12.778 52.501999999999995 14.131 50.891999999999996 15.012 C 49.295 15.886 47.424 16.257 45.207 17.008 z" stroke-linecap="round" />
</g>
<g transform="matrix(10.22 0 0 10.22 68.29 439.61)"  >
<path style="stroke: none; stroke-width: 1; stroke-dasharray: none; stroke-linecap: butt; stroke-dashoffset: 0; stroke-linejoin: miter; stroke-miterlimit: 4; fill: rgb(255,255,255); fill-rule: evenodd; opacity: 1;" vector-effect="non-scaling-stroke"  transform=" translate(-7.78, -44.09)" d="M 10.555 41.71 C 10.449 44.904 8.279 48.126000000000005 6.616999999999999 47.910000000000004 C 5.977999999999999 47.827000000000005 5.044999999999999 46.659000000000006 5.004999999999999 45.944 C 4.872999999999999 43.576 7.4719999999999995 40.025000000000006 9.091 40.279 C 9.78 40.388 10.317 41.462 10.555 41.71 z" stroke-linecap="round" />
</g>
<g transform="matrix(10.22 0 0 10.22 211.56 245.55)"  >
<path style="stroke: none; stroke-width: 1; stroke-dasharray: none; stroke-linecap: butt; stroke-dashoffset: 0; stroke-linejoin: miter; stroke-miterlimit: 4; fill: rgb(255,255,255); fill-rule: evenodd; opacity: 1;" vector-effect="non-scaling-stroke"  transform=" translate(-21.79, -25.11)" d="M 19.22 28.43 C 18.668 26.913 18.189999999999998 26.195 18.229 25.506999999999998 C 18.256999999999998 25.006999999999998 18.875999999999998 24.345 19.394 24.104 C 21.223 23.253999999999998 23.119 22.555 24.99 21.797 C 25.104 22.362000000000002 25.505 23.247 25.287 23.442 C 23.54 25.011 21.674 26.448 19.22 28.43 z" stroke-linecap="round" />
</g>
</svg>