<?xml version="1.0" encoding="UTF-8" standalone="no" ?>
<!DOCTYPE svg PUBLIC "-//W3C//DTD SVG 1.1//EN" "http://www.w3.org/Graphics/SVG/1.1/DTD/svg11.dtd">
<svg xmlns="http://www.w3.org/2000/svg" xmlns:xlink="http://www.w3.org/1999/xlink" version="1.1" width="3500" height="1000" viewBox="0 0 3500 1000" xml:space="preserve">
<desc>Created with Fabric.js 5.2.4</desc>
<defs>
</defs>
<rect x="0" y="0" width="100%" height="100%" fill="transparent"></rect>
<g transform="matrix(1 0 0 1 1750 500)" id="66d0fe64-171d-488e-aa79-d8fe6a569cb7"  >
<rect style="stroke: none; stroke-width: 1; stroke-dasharray: none; stroke-linecap: butt; stroke-dashoffset: 0; stroke-linejoin: miter; stroke-miterlimit: 4; fill: rgb(0,0,0); fill-rule: nonzero; opacity: 1; visibility: hidden;" vector-effect="non-scaling-stroke"  x="-1750" y="-500" rx="0" ry="0" width="3500" height="1000" />
</g>
<g transform="matrix(Infinity NaN NaN Infinity 0 0)" id="e36b214c-1a81-4a0b-b71a-93befb82d2c9"  >
</g>
<g transform="matrix(10.22 0 0 10.22 375.66 389.09)"  >
<path style="stroke: none; stroke-width: 1; stroke-dasharray: none; stroke-linecap: butt; stroke-dashoffset: 0; stroke-linejoin: miter; stroke-miterlimit: 4; fill: rgb(255,255,255); fill-rule: evenodd; opacity: 1;" vector-effect="non-scaling-stroke"  transform=" translate(-37.49, -39.16)" d="M 37.854 26.105 C 42.272999999999996 26.532 47.282 26.193 51.727 27.611 C 61.668 30.783 64.515 40.486000000000004 58.678 49.227000000000004 C 52.836 57.975 39.604 61.906000000000006 29.970999999999997 57.756 C 24.237999999999996 55.286 21.406999999999996 50.721000000000004 21.584999999999997 44.263 C 21.615999999999996 43.147999999999996 21.589 42.033 21.589 40.403999999999996 C 20.205 41.483999999999995 19.275 42.513999999999996 18.115 43.023999999999994 C 17.078999999999997 43.48 15.483999999999998 43.85399999999999 14.694999999999999 43.36299999999999 C 13.860999999999999 42.84199999999999 13.184999999999999 41.19599999999999 13.316999999999998 40.15299999999999 C 13.814999999999998 36.20299999999999 15.889999999999999 33.038999999999994 19.22 30.84899999999999 C 21.496 29.35099999999999 23.651 30.53499999999999 23.904 33.28099999999999 C 23.977 34.08399999999999 23.915 34.898999999999994 23.915 35.86699999999999 C 27.096 33.26099999999999 30.127 30.77799999999999 33.797 27.77099999999999 C 31.984999999999996 28.11899999999999 30.873999999999995 28.59299999999999 29.836999999999996 28.46299999999999 C 28.697999999999997 28.321999999999992 27.389999999999997 27.85799999999999 26.632999999999996 27.07199999999999 C 26.278999999999996 26.70599999999999 26.750999999999994 24.95899999999999 27.360999999999997 24.344999999999988 C 30.83 20.849999999999987 35.056 18.828999999999986 40.05 18.910999999999987 C 42.379999999999995 18.948999999999987 43.153999999999996 20.785999999999987 41.608999999999995 22.60399999999999 C 40.347 24.094 38.744 25.293 37.854 26.105 z" stroke-linecap="round" />
</g>
<g transform="matrix(10.22 0 0 10.22 644.48 598.6)"  >
<path style="stroke: none; stroke-width: 1; stroke-dasharray: none; stroke-linecap: butt; stroke-dashoffset: 0; stroke-linejoin: miter; stroke-miterlimit: 4; fill: rgb(255,255,255); fill-rule: evenodd; opacity: 1;" vector-effect="non-scaling-stroke"  transform=" translate(-63.78, -59.65)" d="M 67.94 49.245 C 74.362 49.248999999999995 77.573 54.131 74.599 60.052 C 71.575 66.075 66.58 69.81700000000001 59.58800000000001 70.041 C 52.80500000000001 70.258 50.47500000000001 65.823 52.589000000000006 59.687 C 54.57 53.937 61.87 49.242 67.94 49.245 z" stroke-linecap="round" />
</g>
<g transform="matrix(10.22 0 0 10.22 736.76 358.81)"  >
<path style="stroke: none; stroke-width: 1; stroke-dasharray: none; stroke-linecap: butt; stroke-dashoffset: 0; stroke-linejoin: miter; stroke-miterlimit: 4; fill: rgb(255,255,255); fill-rule: evenodd; opacity: 1;" vector-effect="non-scaling-stroke"  transform=" translate(-72.8, -36.19)" d="M 74.326 45.595 C 68.53099999999999 45.555 63.36699999999999 40.245999999999995 63.38199999999999 34.344 C 63.39199999999999 29.987000000000002 66.457 26.767000000000003 70.56799999999998 26.794 C 76.30699999999999 26.833000000000002 82.24199999999999 32.803 82.21299999999998 38.511 C 82.191 42.906 79.158 45.627 74.326 45.595 z" stroke-linecap="round" />
</g>
<g transform="matrix(10.22 0 0 10.22 355.18 682.07)"  >
<path style="stroke: none; stroke-width: 1; stroke-dasharray: none; stroke-linecap: butt; stroke-dashoffset: 0; stroke-linejoin: miter; stroke-miterlimit: 4; fill: rgb(255,255,255); fill-rule: evenodd; opacity: 1;" vector-effect="non-scaling-stroke"  transform=" translate(-35.48, -67.81)" d="M 36.197 75.248 C 33.506 74.50200000000001 30.719 73.992 28.151000000000003 72.94500000000001 C 25.611000000000004 71.909 23.734 69.86300000000001 23.776000000000003 66.93 C 23.817000000000004 64.06700000000001 25.786 62.37700000000001 28.332000000000004 61.50500000000001 C 33.303000000000004 59.80200000000001 38.282000000000004 59.95100000000001 42.982000000000006 62.32800000000001 C 45.596000000000004 63.65100000000001 47.705000000000005 65.71700000000001 47.077000000000005 69.07900000000001 C 46.441 72.49300000000001 43.587 73.60900000000001 40.72800000000001 74.43 C 39.34700000000001 74.82700000000001 37.81500000000001 74.70100000000001 36.351000000000006 74.813 C 36.3 74.958 36.249 75.102 36.197 75.248 z" stroke-linecap="round" />
</g>
<g transform="matrix(10.22 0 0 10.22 879.53 599.08)"  >
<path style="stroke: none; stroke-width: 1; stroke-dasharray: none; stroke-linecap: butt; stroke-dashoffset: 0; stroke-linejoin: miter; stroke-miterlimit: 4; fill: rgb(255,255,255); fill-rule: evenodd; opacity: 1;" vector-effect="non-scaling-stroke"  transform=" translate(-86.76, -59.69)" d="M 88.205 52.5 C 93.977 52.465 96.524 56.593 94.068 61.247 C 91.895 65.367 86.452 67.87 82.615 66.514 C 78.90599999999999 65.203 77.52199999999999 61.94799999999999 79.271 58.41799999999999 C 81.184 54.559 84.474 52.786 88.205 52.5 z" stroke-linecap="round" />
</g>
<g transform="matrix(10.22 0 0 10.22 468.61 828.01)"  >
<path style="stroke: none; stroke-width: 1; stroke-dasharray: none; stroke-linecap: butt; stroke-dashoffset: 0; stroke-linejoin: miter; stroke-miterlimit: 4; fill: rgb(255,255,255); fill-rule: evenodd; opacity: 1;" vector-effect="non-scaling-stroke"  transform=" translate(-46.57, -82.08)" d="M 46.266 87.77 C 43.961 87.12299999999999 42.153999999999996 86.886 40.608 86.124 C 37.221 84.45299999999999 36.998999999999995 80.678 40.142999999999994 78.55499999999999 C 43.925999999999995 76.00099999999999 48.129999999999995 75.81599999999999 52.248999999999995 77.425 C 55.81399999999999 78.817 56.28699999999999 82.75399999999999 53.087999999999994 84.92099999999999 C 51.013 86.325 48.388 86.917 46.266 87.77 z" stroke-linecap="round" />
</g>
<g transform="matrix(10.22 0 0 10.22 574.94 215.44)"  >
<path style="stroke: none; stroke-width: 1; stroke-dasharray: none; stroke-linecap: butt; stroke-dashoffset: 0; stroke-linejoin: miter; stroke-miterlimit: 4; fill: rgb(255,255,255); fill-rule: evenodd; opacity: 1;" vector-effect="non-scaling-stroke"  transform=" translate(-56.97, -22.17)" d="M 57.453 27.11 C 54.763000000000005 26.258 51.74 25.686 49.091 24.361 C 46.105000000000004 22.867 46.304 20.298000000000002 49.182 18.616 C 52.902 16.442999999999998 61.838 16.912 65.23 19.459 C 67.706 21.316 67.63600000000001 23.856 64.795 25.119999999999997 C 62.648 26.075 60.217 26.391 57.453 27.11 z" stroke-linecap="round" />
</g>
<g transform="matrix(10.22 0 0 10.22 168.21 555.42)"  >
<path style="stroke: none; stroke-width: 1; stroke-dasharray: none; stroke-linecap: butt; stroke-dashoffset: 0; stroke-linejoin: miter; stroke-miterlimit: 4; fill: rgb(255,255,255); fill-rule: evenodd; opacity: 1;" vector-effect="non-scaling-stroke"  transform=" translate(-17.2, -55.42)" d="M 23.009 56.955 C 23.232 59.666 22.165 61.827999999999996 19.711 62.861999999999995 C 17.108999999999998 63.956999999999994 14.925999999999998 62.574 13.337999999999997 60.61899999999999 C 11.302999999999997 58.11299999999999 9.975999999999997 55.23199999999999 10.930999999999997 51.86999999999999 C 12.188999999999997 47.44199999999999 16.543 46.12399999999999 19.641 49.49999999999999 C 21.439 51.45799999999999 22.424999999999997 54.16199999999999 23.775999999999996 56.528999999999996 C 23.521 56.671 23.265 56.813 23.009 56.955 z" stroke-linecap="round" />
</g>
<g transform="matrix(10.22 0 0 10.22 780.2 193.92)"  >
<path style="stroke: none; stroke-width: 1; stroke-dasharray: none; stroke-linecap: butt; stroke-dashoffset: 0; stroke-linejoin: miter; stroke-miterlimit: 4; fill: rgb(255,255,255); fill-rule: evenodd; opacity: 1;" vector-effect="non-scaling-stroke"  transform=" translate(-77.05, -20.07)" d="M 75.446 15.578 C 77.744 16.71 79.79899999999999 17.345 81.328 18.615 C 82.24300000000001 19.374 82.973 21.348999999999997 82.616 22.366 C 82.251 23.407 80.422 24.611 79.293 24.554 C 77.29400000000001 24.453999999999997 75.099 23.811999999999998 73.453 22.703 C 72.306 21.931 71.105 19.743 71.44200000000001 18.655 C 71.828 17.411 73.889 16.688 75.446 15.578 z" stroke-linecap="round" />
</g>
<g transform="matrix(10.22 0 0 10.22 119.18 691.11)"  >
<path style="stroke: none; stroke-width: 1; stroke-dasharray: none; stroke-linecap: butt; stroke-dashoffset: 0; stroke-linejoin: miter; stroke-miterlimit: 4; fill: rgb(255,255,255); fill-rule: evenodd; opacity: 1;" vector-effect="non-scaling-stroke"  transform=" translate(-12.4, -68.69)" d="M 16.589 70.245 C 15.623999999999999 71.613 14.976999999999999 73.5 13.878999999999998 73.813 C 12.798999999999998 74.12 10.853999999999997 73.167 10.031999999999998 72.16 C 8.983999999999998 70.875 8.206999999999999 68.97999999999999 8.208999999999998 67.35 C 8.210999999999999 66.04599999999999 9.274999999999999 64.241 10.399999999999999 63.617999999999995 C 11.168 63.19199999999999 13.255999999999998 64.073 14.028999999999998 64.984 C 15.165 66.325 15.651 68.213 16.589 70.245 z" stroke-linecap="round" />
</g>
<g transform="matrix(10.22 0 0 10.22 469.67 138.24)"  >
<path style="stroke: none; stroke-width: 1; stroke-dasharray: none; stroke-linecap: butt; stroke-dashoffset: 0; stroke-linejoin: miter; stroke-miterlimit: 4; fill: rgb(255,255,255); fill-rule: evenodd; opacity: 1;" vector-effect="non-scaling-stroke"  transform=" translate(-46.93, -14.62)" d="M 45.207 17.008 C 44.103 16.303 43.007 15.601999999999999 41.909 14.902999999999999 C 43.007 14.084 44 12.86 45.226 12.549 C 46.882999999999996 12.129 48.766 12.152999999999999 50.464999999999996 12.461 C 52.214 12.778 52.501999999999995 14.131 50.891999999999996 15.012 C 49.295 15.886 47.424 16.257 45.207 17.008 z" stroke-linecap="round" />
</g>
<g transform="matrix(10.22 0 0 10.22 71.94 439.61)"  >
<path style="stroke: none; stroke-width: 1; stroke-dasharray: none; stroke-linecap: butt; stroke-dashoffset: 0; stroke-linejoin: miter; stroke-miterlimit: 4; fill: rgb(255,255,255); fill-rule: evenodd; opacity: 1;" vector-effect="non-scaling-stroke"  transform=" translate(-7.78, -44.09)" d="M 10.555 41.71 C 10.449 44.904 8.279 48.126000000000005 6.616999999999999 47.910000000000004 C 5.977999999999999 47.827000000000005 5.044999999999999 46.659000000000006 5.004999999999999 45.944 C 4.872999999999999 43.576 7.4719999999999995 40.025000000000006 9.091 40.279 C 9.78 40.388 10.317 41.462 10.555 41.71 z" stroke-linecap="round" />
</g>
<g transform="matrix(10.22 0 0 10.22 215.21 245.55)"  >
<path style="stroke: none; stroke-width: 1; stroke-dasharray: none; stroke-linecap: butt; stroke-dashoffset: 0; stroke-linejoin: miter; stroke-miterlimit: 4; fill: rgb(255,255,255); fill-rule: evenodd; opacity: 1;" vector-effect="non-scaling-stroke"  transform=" translate(-21.79, -25.11)" d="M 19.22 28.43 C 18.668 26.913 18.189999999999998 26.195 18.229 25.506999999999998 C 18.256999999999998 25.006999999999998 18.875999999999998 24.345 19.394 24.104 C 21.223 23.253999999999998 23.119 22.555 24.99 21.797 C 25.104 22.362000000000002 25.505 23.247 25.287 23.442 C 23.54 25.011 21.674 26.448 19.22 28.43 z" stroke-linecap="round" />
</g>
<g transform="matrix(9.09 0 0 9.09 2252.76 500)"  >
<path style="stroke: none; stroke-width: 1; stroke-dasharray: none; stroke-linecap: butt; stroke-dashoffset: 0; stroke-linejoin: miter; stroke-miterlimit: 4; fill: rgb(255,255,255); fill-rule: nonzero; opacity: 1;" vector-effect="non-scaling-stroke"  transform=" translate(-137.67, -29.98)" d="M 7.56 40 C 7.199999999999999 40 6.96 38.72 7.279999999999999 38.68 C 10.04 38.32 11.879999999999999 37.76 11.879999999999999 35.6 L 11.879999999999999 15.880000000000003 C 11.879999999999999 14.880000000000003 11.52 14.560000000000002 10.559999999999999 14.560000000000002 L 9.479999999999999 14.560000000000002 C 5.679999999999999 14.560000000000002 3.5599999999999987 15.440000000000003 2.759999999999999 17.160000000000004 C 2.399999999999999 17.960000000000004 1.039999999999999 17.840000000000003 1.1999999999999988 17.160000000000004 C 1.5599999999999987 15.720000000000004 1.879999999999999 14.480000000000004 2.1199999999999988 12.360000000000003 C 2.199999999999999 11.600000000000003 2.639999999999999 11.640000000000002 3.3599999999999985 11.720000000000002 C 5.199999999999998 11.920000000000002 6.879999999999999 12.000000000000002 14.479999999999997 12.000000000000002 C 22.079999999999995 12.000000000000002 24.759999999999998 11.920000000000002 26.679999999999996 11.720000000000002 C 27.399999999999995 11.640000000000002 28.079999999999995 11.600000000000003 27.839999999999996 12.360000000000003 C 27.239999999999995 14.240000000000002 26.839999999999996 15.720000000000002 26.599999999999998 17.160000000000004 C 26.479999999999997 17.840000000000003 25.4 17.880000000000003 25.24 17.160000000000004 C 24.84 15.480000000000004 23.08 14.560000000000004 19.64 14.560000000000004 L 18.400000000000002 14.560000000000004 C 17.44 14.560000000000004 16.840000000000003 14.880000000000004 16.840000000000003 15.880000000000004 L 16.840000000000003 35.6 C 16.840000000000003 37.760000000000005 18.680000000000003 38.32 21.440000000000005 38.68 C 21.760000000000005 38.72 21.520000000000003 40 21.160000000000004 40 L 7.560000000000004 40 z M 60.08 39 C 60.4 39 60.32 40.08 60.08 40.16 C 57.559999999999995 41 54.08 40.879999999999995 51.68 37.8 L 45.519999999999996 29.879999999999995 C 43.8 27.639999999999993 41.76 27.319999999999997 38.959999999999994 27.279999999999994 L 38.959999999999994 35.03999999999999 C 38.959999999999994 37.83999999999999 40.879999999999995 38.31999999999999 43.44 38.63999999999999 C 43.72 38.67999999999999 43.519999999999996 39.99999999999999 43.199999999999996 39.99999999999999 L 31.08 39.99999999999999 C 30.759999999999998 39.99999999999999 30.52 38.67999999999999 30.84 38.63999999999999 C 32.88 38.35999999999999 34.16 37.559999999999995 34.16 35.03999999999999 L 34.16 17.199999999999992 C 34.16 14.559999999999992 32.76 13.799999999999992 30.839999999999996 13.279999999999992 C 30.519999999999996 13.199999999999992 30.719999999999995 11.879999999999992 31.079999999999995 11.919999999999993 C 32.63999999999999 12.119999999999992 34.39999999999999 12.159999999999993 35.67999999999999 12.159999999999993 C 38.63999999999999 12.159999999999993 41.39999999999999 11.919999999999993 43.31999999999999 11.919999999999993 C 49.35999999999999 11.919999999999993 53.39999999999999 14.399999999999993 53.39999999999999 19.319999999999993 C 53.39999999999999 23.959999999999994 49.63999999999999 26.239999999999995 46.279999999999994 26.439999999999994 L 46.279999999999994 26.639999999999993 C 47.879999999999995 26.639999999999993 49.03999999999999 27.319999999999993 50.8 29.519999999999992 L 56.76 36.99999999999999 C 58 38.559999999999995 59.199999999999996 38.99999999999999 60.08 38.99999999999999 z M 40.120000000000005 25.439999999999998 C 46.080000000000005 25.439999999999998 48.36000000000001 24.4 48.36000000000001 20.4 C 48.36000000000001 16.119999999999997 45.64000000000001 13.999999999999998 42.080000000000005 13.999999999999998 C 39.720000000000006 13.999999999999998 38.96000000000001 14.959999999999997 38.96000000000001 17.2 L 38.96000000000001 25.439999999999998 L 40.120000000000005 25.439999999999998 z M 91.76 38.64 C 92.32000000000001 38.72 92.16000000000001 40 91.68 40 L 81.12 40 C 80.60000000000001 40 80.56 38.72 81 38.64 C 82.48 38.36 84.08 37.84 82.6 34.4 L 82.16 33.4 C 81.75999999999999 32.44 81.08 32.36 79.88 32.36 L 71.72 32.36 C 70.52 32.36 69.84 32.44 69.44 33.4 L 69.03999999999999 34.4 C 67.63999999999999 37.839999999999996 69.16 38.36 71.08 38.64 C 71.6 38.72 71.48 40 70.96 40 L 62.31999999999999 40 C 61.839999999999996 40 61.71999999999999 38.72 62.199999999999996 38.64 C 63.839999999999996 38.36 64.8 37.8 66.28 34.4 L 73.04 18.88 C 74.60000000000001 15.36 75.08000000000001 13.719999999999999 75.08000000000001 12.2 C 75.08000000000001 11.959999999999999 77.88000000000001 11.319999999999999 78.00000000000001 11.6 L 87.76000000000002 34.36 C 89.20000000000002 37.76 90.16000000000003 38.4 91.76000000000002 38.64 z M 79.6 30.119999999999997 C 80.16 30.119999999999997 80.75999999999999 30.04 80.52 29.479999999999997 L 75.84 18.279999999999998 L 71.12 29.479999999999997 C 70.88000000000001 30.039999999999996 71.48 30.119999999999997 72.04 30.119999999999997 L 79.60000000000001 30.119999999999997 z M 111.80000000000001 24.759999999999998 C 115.52000000000001 24.759999999999998 119.12 27.439999999999998 119.12 31.919999999999998 C 119.12 36.879999999999995 114.60000000000001 40.08 107.92 40.08 C 106 40.08 103.76 39.839999999999996 100.8 39.839999999999996 C 98.28 39.839999999999996 96.36 39.879999999999995 94.52 40.08 C 94.16 40.12 93.96 38.72 94.28 38.64 C 96.6 38.04 98.4 37.68 98.4 34.72 L 98.4 16.959999999999997 C 98.4 14.399999999999997 96.76 13.719999999999997 95.04 13.279999999999998 C 94.72000000000001 13.199999999999998 94.92 11.879999999999997 95.24000000000001 11.919999999999998 C 96.88000000000001 12.119999999999997 98.80000000000001 12.159999999999998 100.08000000000001 12.159999999999998 C 103.28000000000002 12.159999999999998 105.64000000000001 11.919999999999998 107.4 11.919999999999998 C 112.56 11.919999999999998 116.80000000000001 14.079999999999998 116.84 18.479999999999997 C 116.88000000000001 21.72 114.60000000000001 23.959999999999997 111.8 24.519999999999996 L 111.8 24.759999999999994 z M 106.04 14 C 103.92 14 103.2 14.72 103.2 16.96 L 103.2 24.080000000000002 L 107.32000000000001 24.080000000000002 C 110.2 24.080000000000002 111.88000000000001 22.64 111.88000000000001 19.560000000000002 C 111.88000000000001 15.760000000000002 109.32000000000001 14.000000000000004 106.04 14.000000000000004 z M 107.80000000000001 38 C 111.32000000000001 38 113.96000000000001 36.96 113.96000000000001 32.8 C 113.96000000000001 28.4 111.04 26.08 107.32000000000001 26.08 L 103.2 26.08 L 103.2 34.72 C 103.2 36.92 104.32000000000001 38 107.8 38 z M 152.20000000000002 38.64 C 152.76000000000002 38.72 152.60000000000002 40 152.12 40 L 141.56 40 C 141.04 40 141 38.72 141.44 38.64 C 142.92 38.36 144.52 37.84 143.04 34.4 L 142.6 33.4 C 142.2 32.44 141.51999999999998 32.36 140.32 32.36 L 132.16 32.36 C 130.96 32.36 130.28 32.44 129.88 33.4 L 129.48 34.4 C 128.07999999999998 37.839999999999996 129.6 38.36 131.51999999999998 38.64 C 132.04 38.72 131.92 40 131.39999999999998 40 L 122.75999999999998 40 C 122.27999999999997 40 122.15999999999998 38.72 122.63999999999997 38.64 C 124.27999999999997 38.36 125.23999999999997 37.8 126.71999999999997 34.4 L 133.47999999999996 18.88 C 135.03999999999996 15.36 135.51999999999995 13.719999999999999 135.51999999999995 12.2 C 135.51999999999995 11.959999999999999 138.31999999999996 11.319999999999999 138.43999999999994 11.6 L 148.19999999999993 34.36 C 149.63999999999993 37.76 150.59999999999994 38.4 152.19999999999993 38.64 z M 140.04000000000002 30.119999999999997 C 140.60000000000002 30.119999999999997 141.20000000000002 30.04 140.96 29.479999999999997 L 136.28 18.279999999999998 L 131.56 29.479999999999997 C 131.32 30.039999999999996 131.92000000000002 30.119999999999997 132.48 30.119999999999997 L 140.04 30.119999999999997 z M 155.52 48.6 C 154.92000000000002 48.6 154.56 47.24 154.88000000000002 47.2 C 156.68000000000004 47 158.60000000000002 44.96 158.60000000000002 40.24 L 158.60000000000002 16.840000000000003 C 158.60000000000002 14.040000000000003 157.00000000000003 13.480000000000004 155.28000000000003 13.240000000000004 C 154.96000000000004 13.200000000000005 155.20000000000002 12.000000000000004 155.52000000000004 12.000000000000004 L 166.48000000000005 12.000000000000004 C 166.80000000000004 12.000000000000004 167.04000000000005 13.200000000000003 166.72000000000006 13.240000000000004 C 165.00000000000006 13.480000000000004 163.40000000000006 14.040000000000004 163.40000000000006 16.840000000000003 L 163.40000000000006 40.24 C 163.40000000000006 44.28 158.28000000000006 48.6 155.52000000000007 48.6 z M 185.12 40.64 C 176.8 40.64 170.68 34.480000000000004 170.68 26.16 C 170.68 18.08 176.44 11.36 185.20000000000002 11.36 C 193.56 11.36 199.64000000000001 17.48 199.64000000000001 25.799999999999997 C 199.64000000000001 33.919999999999995 193.92000000000002 40.64 185.12 40.64 z M 186.67999999999998 37.92 C 190.2 37.92 194.87999999999997 35.6 194.87999999999997 28.04 C 194.87999999999997 19.96 189.39999999999998 14.079999999999998 183.63999999999996 14.079999999999998 C 180.11999999999995 14.079999999999998 175.47999999999996 16.4 175.47999999999996 23.919999999999998 C 175.47999999999996 32.08 180.95999999999995 37.92 186.67999999999995 37.92 z M 207.07999999999998 40.4 C 206.2 40.4 204.04 38.519999999999996 204.04 37.36 C 204.04 36.2 206.2 34.32 207.07999999999998 34.32 C 207.95999999999998 34.32 210.11999999999998 36.2 210.11999999999998 37.36 C 210.11999999999998 38.519999999999996 207.95999999999998 40.4 207.07999999999998 40.4 z M 229.07999999999996 40.64 C 223.43999999999997 40.64 217.11999999999995 37.64 217.11999999999995 29.520000000000003 L 217.11999999999995 16.96 C 217.11999999999995 14.440000000000001 215.83999999999995 13.600000000000001 213.87999999999994 13.360000000000001 C 213.55999999999995 13.320000000000002 213.79999999999993 12.000000000000002 214.11999999999995 12.000000000000002 L 225.03999999999994 12.000000000000002 C 225.35999999999993 12.000000000000002 225.59999999999994 13.320000000000002 225.27999999999994 13.360000000000001 C 223.67999999999995 13.56 222.07999999999996 14.160000000000002 222.07999999999996 16.96 L 222.07999999999996 29.72 C 222.07999999999996 35.32 225.31999999999996 37.92 229.55999999999995 37.92 C 233.91999999999996 37.92 237.39999999999995 35.32 237.39999999999995 29.720000000000002 L 237.39999999999995 16.96 C 237.39999999999995 14.360000000000001 235.91999999999996 13.64 233.95999999999995 13.360000000000001 C 233.67999999999995 13.320000000000002 233.87999999999994 12.000000000000002 234.19999999999996 12.000000000000002 L 243.19999999999996 12.000000000000002 C 243.47999999999996 12.000000000000002 243.71999999999997 13.320000000000002 243.39999999999995 13.360000000000001 C 241.79999999999995 13.56 240.19999999999996 14.160000000000002 240.19999999999996 16.96 L 240.19999999999996 29.48 C 240.19999999999996 36.84 235.43999999999997 40.64 229.07999999999996 40.64 z M 273.71999999999997 12 C 274.2 12 274.32 13.28 273.84 13.36 C 272.28 13.6 270.91999999999996 14.719999999999999 269.08 17.6 L 262.68 27.6 L 262.68 35.04 C 262.68 37.839999999999996 264.28000000000003 38.32 266.76 38.64 C 267.03999999999996 38.68 266.84 40 266.52 40 L 253.99999999999997 40 C 253.67999999999998 40 253.47999999999996 38.68 253.75999999999996 38.64 C 256.4 38.28 257.87999999999994 37.76 257.87999999999994 35.04 L 257.87999999999994 27.759999999999998 L 251.15999999999994 17.64 C 249.31999999999994 14.88 248.19999999999993 13.64 246.47999999999993 13.36 C 245.95999999999992 13.28 246.07999999999993 12 246.59999999999994 12 L 257.1599999999999 12 C 257.6799999999999 12 257.75999999999993 13.28 257.2799999999999 13.36 C 255.51999999999992 13.639999999999999 254.83999999999992 15 256.5599999999999 17.6 L 261.6399999999999 25.16 L 266.51999999999987 17.6 C 268.1999999999999 15.000000000000002 267.1999999999999 13.680000000000001 265.07999999999987 13.360000000000001 C 264.51999999999987 13.280000000000001 264.6799999999999 12.000000000000002 265.15999999999985 12.000000000000002 L 273.71999999999986 12.000000000000002 z" stroke-linecap="round" />
</g>
</svg>